<svg width="17" height="19" viewBox="0 0 17 19" fill="none" xmlns="http://www.w3.org/2000/svg">
<path d="M0.275757 18.7984V0.000976562H10.44C12.3159 0.000976562 13.742 0.448532 14.7182 1.34365C15.6944 2.23876 16.1826 3.52305 16.1826 5.19653C16.1826 6.16948 16.0007 6.98676 15.637 7.64836C15.2925 8.30997 14.8331 8.83536 14.2588 9.22454C15.0436 9.53588 15.6657 9.99317 16.1251 10.5964C16.6037 11.1802 16.8429 12.0558 16.8429 13.2234C16.8429 14.9941 16.307 16.366 15.235 17.3389C14.1631 18.3119 12.6413 18.7984 10.6697 18.7984H0.275757ZM5.47274 7.50242H8.97568C10.2965 7.50242 10.9569 6.89919 10.9569 5.69273C10.9569 5.0895 10.7942 4.63222 10.4687 4.32087C10.1625 4.00953 9.61693 3.85386 8.83212 3.85386H5.47274V7.50242ZM5.47274 14.9747H9.20539C9.93277 14.9747 10.4687 14.819 10.8133 14.5077C11.1578 14.1963 11.3301 13.6807 11.3301 12.9607C11.3301 12.3574 11.1578 11.9002 10.8133 11.5888C10.4687 11.2775 9.89449 11.1218 9.09054 11.1218H5.47274V14.9747Z" fill="#28282C"/>
</svg>
