<svg width="104" height="21" viewBox="0 0 104 21" fill="none" xmlns="http://www.w3.org/2000/svg">
<g opacity="0.1">
<path d="M0.487717 20.5788V0.177734H11.6839C13.7502 0.177734 15.3211 0.663475 16.3964 1.63495C17.4717 2.60643 18.0094 4.0003 18.0094 5.81654C18.0094 6.8725 17.8091 7.7595 17.4085 8.47755C17.029 9.1956 16.5229 9.76582 15.8904 10.1882C16.7548 10.5261 17.4401 11.0224 17.9462 11.6771C18.4733 12.3107 18.7368 13.261 18.7368 14.5282C18.7368 16.45 18.1465 17.9389 16.9657 18.9949C15.7849 20.0508 14.1087 20.5788 11.9369 20.5788H0.487717ZM6.21231 8.31916H10.0709C11.5257 8.31916 12.2532 7.66447 12.2532 6.35508C12.2532 5.70039 12.074 5.20409 11.7155 4.86618C11.3782 4.52828 10.7772 4.35932 9.91274 4.35932H6.21231V8.31916ZM6.21231 16.4289H10.3239C11.1251 16.4289 11.7155 16.26 12.095 15.922C12.4746 15.5841 12.6643 15.0245 12.6643 14.2431C12.6643 13.5884 12.4746 13.0921 12.095 12.7542C11.7155 12.4163 11.083 12.2473 10.1974 12.2473H6.21231V16.4289Z" fill="white"/>
<path d="M30.4536 20.8956C28.556 20.8956 26.8797 20.5894 25.4248 19.9769C23.9911 19.3433 22.863 18.4247 22.0407 17.2209C21.2184 15.996 20.8072 14.4965 20.8072 12.7225V0.177734H26.7532V12.0889C26.7532 14.581 27.9867 15.827 30.4536 15.827C31.6344 15.827 32.5411 15.5208 33.1736 14.9083C33.8062 14.2959 34.1224 13.3561 34.1224 12.0889V0.177734H40.0684V12.7225C40.0684 14.4965 39.6573 15.996 38.8349 17.2209C38.0337 18.4247 36.9057 19.3433 35.4508 19.9769C34.017 20.5894 32.3513 20.8956 30.4536 20.8956Z" fill="white"/>
<path d="M42.7711 20.5788V0.177734H53.3663C55.0321 0.177734 56.3921 0.483963 57.4463 1.09642C58.5216 1.70887 59.3229 2.5642 59.85 3.66239C60.3771 4.73947 60.6407 5.99606 60.6407 7.43216C60.6407 8.8049 60.2928 10.0192 59.597 11.0752C58.9223 12.11 58.0156 12.902 56.877 13.4511C57.1089 13.6412 57.3093 13.8735 57.4779 14.148C57.6466 14.4015 57.8364 14.7605 58.0472 15.2251L60.3877 20.5788H54.1887L52.038 15.6686C51.8693 15.2885 51.6585 15.0245 51.4054 14.8766C51.1735 14.7077 50.8361 14.6232 50.3933 14.6232H48.7171V20.5788H42.7711ZM48.7171 10.0615H51.8482C52.7127 10.0615 53.3769 9.83974 53.8408 9.39624C54.3257 8.93162 54.5682 8.27692 54.5682 7.43216C54.5682 5.63703 53.7248 4.73947 52.038 4.73947H48.7171V10.0615Z" fill="white"/>
<path d="M62.8472 20.5788V0.177734H71.956C74.0434 0.177734 75.8251 0.526201 77.301 1.22313C78.777 1.89894 79.905 2.99714 80.6852 4.51772C81.4653 6.01718 81.8554 8.01293 81.8554 10.505C81.8554 14.0108 81.0014 16.5662 79.2936 18.1712C77.5857 19.7763 75.1398 20.5788 71.956 20.5788H62.8472ZM68.7932 16.0171H71.1969C72.1879 16.0171 73.0208 15.8798 73.6955 15.6053C74.3702 15.3096 74.8868 14.7711 75.2452 13.9896C75.6037 13.1871 75.7829 12.0256 75.7829 10.505C75.7829 8.98441 75.6142 7.8123 75.2769 6.98865C74.9606 6.14389 74.4651 5.56311 73.7904 5.24633C73.1156 4.90842 72.2511 4.73947 71.1969 4.73947H68.7932V16.0171Z" fill="white"/>
<path d="M81.7039 20.5788L89.516 0.177734H95.8098L103.622 20.5788H97.4228L95.715 16.2388H89.5792L87.9029 20.5788H81.7039ZM90.3699 11.9622H94.9243L92.6471 5.97494L90.3699 11.9622Z" fill="white"/>
</g>
</svg>
