<svg width="62" height="10" viewBox="0 0 62 10" fill="none" xmlns="http://www.w3.org/2000/svg">
<path d="M4.90573 10C3.31148 10 2.0953 9.60842 1.25718 8.82526C0.41906 8.04209 0 6.93564 0 5.5059C0 4.03063 0.40995 2.90142 1.22985 2.11825C2.04975 1.32598 3.27049 0.92984 4.89207 0.92984C5.43867 0.92984 5.92605 0.97082 6.35422 1.05278C6.78239 1.13474 7.19234 1.24857 7.58407 1.39428V3.6345C6.80061 3.28845 5.96249 3.11542 5.06971 3.11542C4.2407 3.11542 3.62578 3.30666 3.22494 3.68914C2.8241 4.06251 2.62368 4.6681 2.62368 5.5059C2.62368 6.3255 2.83321 6.91742 3.25227 7.28169C3.68044 7.63685 4.29536 7.81442 5.09704 7.81442C5.53432 7.81442 5.95794 7.77344 6.36789 7.69148C6.78695 7.60953 7.20145 7.48203 7.6114 7.30901V9.56289C7.21967 9.69949 6.80517 9.80421 6.36789 9.87707C5.93972 9.95903 5.45233 10 4.90573 10Z" fill="#8B939A"/>
<path d="M8.57372 9.86341V1.06644H13.1515C13.8712 1.06644 14.4588 1.19848 14.9143 1.46258C15.3789 1.72667 15.7251 2.09548 15.9528 2.56903C16.1806 3.03346 16.2944 3.57531 16.2944 4.19455C16.2944 4.78648 16.1441 5.31011 15.8435 5.76544C15.552 6.21166 15.1602 6.55316 14.6683 6.78993C14.7685 6.87189 14.8551 6.97206 14.9279 7.09045C15.0008 7.19973 15.0828 7.35454 15.1739 7.55489L16.1851 9.86341H13.5068L12.5776 7.74612C12.5047 7.58221 12.4136 7.46837 12.3043 7.40463C12.2041 7.33178 12.0583 7.29535 11.867 7.29535H11.1427V9.86341H8.57372ZM11.1427 5.32832H12.4956C12.8691 5.32832 13.156 5.2327 13.3565 5.04147C13.566 4.84112 13.6708 4.55882 13.6708 4.19455C13.6708 3.42049 13.3064 3.03346 12.5776 3.03346H11.1427V5.32832Z" fill="#8B939A"/>
<path d="M17.2478 9.86341V1.06644H23.9163V3.03346H19.8168V4.46775H23.4107V6.46209H19.8168V7.89638H23.9163V9.86341H17.2478Z" fill="#8B939A"/>
<path d="M24.4609 9.86341L27.8361 1.06644H30.5555L33.9307 9.86341H31.2524L30.5145 7.992H27.8635L27.1392 9.86341H24.4609ZM28.2051 6.14792H30.1728L29.189 3.5662L28.2051 6.14792Z" fill="#8B939A"/>
<path d="M35.6553 9.86341V2.97882H33.1819V1.06644H40.6977V2.97882H38.2243V9.86341H35.6553Z" fill="#8B939A"/>
<path d="M41.375 9.86341V1.06644H43.9441V9.86341H41.375Z" fill="#8B939A"/>
<path d="M48.0801 9.86341L44.7048 1.06644H47.3832L49.4329 6.88555L51.4827 1.06644H54.1747L50.7994 9.86341H48.0801Z" fill="#8B939A"/>
<path d="M54.9333 9.86341V1.06644H61.6018V3.03346H57.5023V4.46775H61.0962V6.46209H57.5023V7.89638H61.6018V9.86341H54.9333Z" fill="#8B939A"/>
</svg>
