<svg width="49" height="10" viewBox="0 0 49 10" fill="none" xmlns="http://www.w3.org/2000/svg">
<path d="M0 9.86341V1.06644H3.94489C4.84893 1.06644 5.62056 1.2167 6.25978 1.51722C6.899 1.80863 7.38754 2.28217 7.72542 2.93784C8.06329 3.58441 8.23222 4.44499 8.23222 5.51956C8.23222 7.03126 7.86239 8.13315 7.12272 8.82526C6.38306 9.51736 5.32378 9.86341 3.94489 9.86341H0ZM2.57514 7.89638H3.61615C4.04534 7.89638 4.40604 7.83719 4.69826 7.71881C4.99047 7.59131 5.2142 7.35909 5.36944 7.02215C5.52468 6.6761 5.6023 6.17524 5.6023 5.51956C5.6023 4.86389 5.52924 4.35847 5.38314 4.00331C5.24616 3.63905 5.03157 3.38862 4.73935 3.25202C4.44714 3.10632 4.07274 3.03346 3.61615 3.03346H2.57514V7.89638Z" fill="#8B939A"/>
<path d="M9.18966 9.86341V1.06644H11.7648V9.86341H9.18966Z" fill="#8B939A"/>
<path d="M17.5496 10C15.9789 10 14.7826 9.61753 13.9608 8.85258C13.1389 8.07852 12.728 6.97662 12.728 5.54688C12.728 4.07161 13.1526 2.93329 14.0019 2.13191C14.8511 1.33053 16.093 0.92984 17.7276 0.92984C18.2755 0.92984 18.7686 0.961713 19.207 1.02546C19.6544 1.08921 20.0745 1.18482 20.4671 1.31232V3.51156C20.0653 3.35675 19.6498 3.25202 19.2207 3.19738C18.7915 3.14274 18.3531 3.11542 17.9057 3.11542C17.0564 3.11542 16.4172 3.30666 15.988 3.68914C15.568 4.07161 15.3579 4.69086 15.3579 5.54688C15.3579 6.34826 15.5406 6.92653 15.9058 7.28169C16.2802 7.63685 16.8281 7.81442 17.5496 7.81442C17.787 7.81442 18.0107 7.80076 18.2207 7.77344C18.4308 7.73702 18.6271 7.69149 18.8097 7.63685V6.35282H17.0564V4.76827H20.9602V9.19407C20.6224 9.40352 20.1703 9.59021 19.6042 9.75413C19.0471 9.91805 18.3623 10 17.5496 10Z" fill="#8B939A"/>
<path d="M21.9241 9.86341V1.06644H24.4992V9.86341H21.9241Z" fill="#8B939A"/>
<path d="M27.6678 9.86341V2.97882H25.1885V1.06644H32.7222V2.97882H30.2429V9.86341H27.6678Z" fill="#8B939A"/>
<path d="M31.9634 9.86341L35.3467 1.06644H38.0725L41.4558 9.86341H38.7711L38.0314 7.992H35.3741L34.6482 9.86341H31.9634ZM35.7166 6.14792H37.689L36.7028 3.5662L35.7166 6.14792Z" fill="#8B939A"/>
<path d="M42.4169 9.86341V1.06644H44.9921V7.89638H48.9643V9.86341H42.4169Z" fill="#8B939A"/>
</svg>
