<svg width="89" height="10" viewBox="0 0 89 10" fill="none" xmlns="http://www.w3.org/2000/svg">
<path d="M0.000244141 9.86344V1.06647H3.94514C4.84917 1.06647 5.6208 1.21673 6.26002 1.51725C6.89924 1.80866 7.38779 2.2822 7.72566 2.93787C8.06353 3.58444 8.23247 4.44502 8.23247 5.51959C8.23247 7.03129 7.86263 8.13319 7.12297 8.82529C6.3833 9.51739 5.32402 9.86344 3.94514 9.86344H0.000244141ZM2.57538 7.89641H3.6164C4.04558 7.89641 4.40629 7.83722 4.6985 7.71884C4.99072 7.59134 5.21444 7.35912 5.36968 7.02218C5.52492 6.67613 5.60254 6.17527 5.60254 5.51959C5.60254 4.86392 5.52949 4.3585 5.38338 4.00335C5.2464 3.63908 5.03181 3.38865 4.73959 3.25205C4.44738 3.10635 4.07298 3.03349 3.6164 3.03349H2.57538V7.89641Z" fill="#8B939A"/>
<path d="M9.1899 9.86344V1.06647H11.765V9.86344H9.1899Z" fill="#8B939A"/>
<path d="M15.8924 10C15.2988 10 14.7372 9.9545 14.2076 9.86344C13.678 9.76327 13.2259 9.62667 12.8515 9.45364V7.33636C13.2625 7.5276 13.719 7.68241 14.2213 7.8008C14.7235 7.91918 15.1938 7.97837 15.6321 7.97837C16.0887 7.97837 16.4312 7.94195 16.6595 7.86909C16.8969 7.78714 17.0156 7.60956 17.0156 7.33636C17.0156 7.14512 16.9471 6.99486 16.8101 6.88558C16.6823 6.7763 16.4768 6.67613 16.1937 6.58506C15.9198 6.494 15.5591 6.38017 15.1116 6.24357C14.5181 6.05233 14.0478 5.84288 13.7008 5.61521C13.3538 5.38755 13.1027 5.1098 12.9474 4.78196C12.8013 4.45412 12.7283 4.05343 12.7283 3.57989C12.7283 2.71476 13.0342 2.05909 13.646 1.61287C14.2669 1.15754 15.1847 0.929871 16.3992 0.929871C16.8832 0.929871 17.3809 0.97085 17.8922 1.05281C18.4127 1.13477 18.8328 1.22584 19.1524 1.32601V3.45695C18.7232 3.28393 18.3123 3.16099 17.9196 3.08813C17.527 3.01528 17.1571 2.97885 16.8101 2.97885C16.4083 2.97885 16.0659 3.01073 15.7828 3.07447C15.4997 3.13822 15.3582 3.30214 15.3582 3.56623C15.3582 3.79389 15.4769 3.96237 15.7143 4.07165C15.9609 4.17182 16.3946 4.30386 17.0156 4.46778C17.737 4.65902 18.2849 4.89124 18.6593 5.16444C19.0428 5.43763 19.3031 5.75636 19.4401 6.12063C19.577 6.47579 19.6455 6.88103 19.6455 7.33636C19.6455 8.13774 19.335 8.78431 18.7141 9.27606C18.0931 9.75871 17.1526 10 15.8924 10Z" fill="#8B939A"/>
<path d="M22.5314 9.86344V2.97885H20.0522V1.06647H27.5858V2.97885H25.1066V9.86344H22.5314Z" fill="#8B939A"/>
<path d="M28.2648 9.86344V1.06647H32.8535C33.5749 1.06647 34.1639 1.19852 34.6205 1.46261C35.0862 1.7267 35.4332 2.09551 35.6615 2.56906C35.8898 3.03349 36.0039 3.57534 36.0039 4.19458C36.0039 4.78651 35.8532 5.31014 35.5519 5.76547C35.2597 6.21169 34.867 6.55319 34.3739 6.78996C34.4744 6.87192 34.5611 6.97209 34.6342 7.09048C34.7072 7.19976 34.7894 7.35457 34.8807 7.55492L35.8943 9.86344H33.2096L32.2782 7.74616C32.2051 7.58224 32.1138 7.4684 32.0042 7.40466C31.9038 7.33181 31.7577 7.29538 31.5659 7.29538H30.8399V9.86344H28.2648ZM30.8399 5.32835H32.196C32.5704 5.32835 32.858 5.23274 33.0589 5.0415C33.269 4.84115 33.374 4.55885 33.374 4.19458C33.374 3.42052 33.0087 3.03349 32.2782 3.03349H30.8399V5.32835Z" fill="#8B939A"/>
<path d="M36.9595 9.86344V1.06647H39.5347V9.86344H36.9595Z" fill="#8B939A"/>
<path d="M40.7718 9.86344V1.06647H45.6208C46.5157 1.06647 47.196 1.27592 47.6617 1.69482C48.1274 2.11373 48.3603 2.71476 48.3603 3.49793C48.3603 3.95326 48.2735 4.33574 48.1 4.64536C47.9357 4.95498 47.7165 5.20086 47.4425 5.383C47.8169 5.5287 48.1137 5.74271 48.3329 6.02501C48.5612 6.29821 48.6753 6.708 48.6753 7.2544C48.6753 8.0831 48.4196 8.72511 47.9083 9.18044C47.3969 9.63577 46.6709 9.86344 45.7303 9.86344H40.7718ZM43.2511 4.57706H44.9222C45.5523 4.57706 45.8673 4.29476 45.8673 3.73015C45.8673 3.44784 45.7897 3.23384 45.6345 3.08813C45.4884 2.94243 45.2281 2.86958 44.8537 2.86958H43.2511V4.57706ZM43.2511 8.07399H45.0318C45.3788 8.07399 45.6345 8.00114 45.7988 7.85543C45.9632 7.70973 46.0454 7.4684 46.0454 7.13146C46.0454 6.84916 45.9632 6.63515 45.7988 6.48945C45.6345 6.34374 45.3605 6.27089 44.977 6.27089H43.2511V8.07399Z" fill="#8B939A"/>
<path d="M53.7497 10C52.9279 10 52.2019 9.86799 51.5718 9.6039C50.9509 9.3307 50.4623 8.93457 50.1062 8.41549C49.75 7.88731 49.572 7.24074 49.572 6.47579V1.06647H52.1471V6.20259C52.1471 7.27717 52.6813 7.81445 53.7497 7.81445C54.2611 7.81445 54.6538 7.68241 54.9277 7.41832C55.2017 7.15423 55.3386 6.74898 55.3386 6.20259V1.06647H57.9138V6.47579C57.9138 7.24074 57.7357 7.88731 57.3796 8.41549C57.0326 8.93457 56.544 9.3307 55.9139 9.6039C55.293 9.86799 54.5716 10 53.7497 10Z" fill="#8B939A"/>
<path d="M61.0156 9.86344V2.97885H58.5364V1.06647H66.07V2.97885H63.5908V9.86344H61.0156Z" fill="#8B939A"/>
<path d="M66.749 9.86344V1.06647H69.3241V9.86344H66.749Z" fill="#8B939A"/>
<path d="M74.7939 10C73.3328 10 72.2142 9.64488 71.438 8.93457C70.6709 8.22425 70.2874 7.07682 70.2874 5.49227C70.2874 4.39948 70.4609 3.5207 70.8079 2.85591C71.1549 2.18203 71.6617 1.69482 72.3283 1.39431C73.004 1.08468 73.8259 0.929871 74.7939 0.929871C75.7618 0.929871 76.5791 1.08468 77.2457 1.39431C77.9215 1.69482 78.4328 2.18203 78.7798 2.85591C79.1268 3.5207 79.3003 4.39948 79.3003 5.49227C79.3003 7.07682 78.9122 8.22425 78.1361 8.93457C77.3599 9.64488 76.2458 10 74.7939 10ZM74.7939 7.81445C75.4513 7.81445 75.9262 7.63232 76.2184 7.26806C76.5197 6.89469 76.6704 6.30276 76.6704 5.49227C76.6704 4.62715 76.5197 4.01701 76.2184 3.66185C75.9262 3.29758 75.4513 3.11545 74.7939 3.11545C74.1364 3.11545 73.657 3.29758 73.3556 3.66185C73.0634 4.01701 72.9173 4.62715 72.9173 5.49227C72.9173 6.30276 73.0634 6.89469 73.3556 7.26806C73.657 7.63232 74.1364 7.81445 74.7939 7.81445Z" fill="#8B939A"/>
<path d="M80.2593 9.86344V1.06647H82.4509L85.7794 5.72449V1.06647H88.3545V9.86344H86.1492L82.8344 5.21908V9.86344H80.2593Z" fill="#8B939A"/>
</svg>
