<svg width="49" height="10" viewBox="0 0 49 10" fill="none" xmlns="http://www.w3.org/2000/svg">
<path d="M0.000244141 9.86344V1.06647H6.68465V3.03349H2.57538V4.46778H6.17784V6.46213H2.57538V7.89641H6.68465V9.86344H0.000244141Z" fill="#8B939A"/>
<path d="M10.4132 9.86344L7.02987 1.06647H9.71459L11.7692 6.88558L13.8239 1.06647H16.5223L13.139 9.86344H10.4132Z" fill="#8B939A"/>
<path d="M17.2827 9.86344V1.06647H23.9671V3.03349H19.8578V4.46778H23.4603V6.46213H19.8578V7.89641H23.9671V9.86344H17.2827Z" fill="#8B939A"/>
<path d="M24.7869 9.86344V1.06647H26.9785L30.307 5.72449V1.06647H32.8822V9.86344H30.6769L27.3621 5.21908V9.86344H24.7869Z" fill="#8B939A"/>
<path d="M36.0417 9.86344V2.97885H33.5625V1.06647H41.0961V2.97885H38.6168V9.86344H36.0417Z" fill="#8B939A"/>
<path d="M44.6653 10C44.0717 10 43.5101 9.9545 42.9805 9.86344C42.4508 9.76327 41.9988 9.62667 41.6244 9.45364V7.33636C42.0353 7.5276 42.4919 7.68241 42.9942 7.8008C43.4964 7.91918 43.9667 7.97837 44.405 7.97837C44.8616 7.97837 45.204 7.94195 45.4323 7.86909C45.6698 7.78714 45.7885 7.60956 45.7885 7.33636C45.7885 7.14512 45.72 6.99486 45.583 6.88558C45.4552 6.7763 45.2497 6.67613 44.9666 6.58506C44.6927 6.494 44.332 6.38017 43.8845 6.24357C43.291 6.05233 42.8207 5.84288 42.4737 5.61521C42.1267 5.38755 41.8755 5.1098 41.7203 4.78196C41.5742 4.45412 41.5011 4.05343 41.5011 3.57989C41.5011 2.71476 41.8071 2.05909 42.4189 1.61287C43.0398 1.15754 43.9576 0.929871 45.1721 0.929871C45.6561 0.929871 46.1537 0.97085 46.6651 1.05281C47.1856 1.13477 47.6057 1.22584 47.9253 1.32601V3.45695C47.4961 3.28393 47.0852 3.16099 46.6925 3.08813C46.2999 3.01528 45.93 2.97885 45.583 2.97885C45.1812 2.97885 44.8388 3.01073 44.5557 3.07447C44.2726 3.13822 44.1311 3.30214 44.1311 3.56623C44.1311 3.79389 44.2498 3.96237 44.4872 4.07165C44.7338 4.17182 45.1675 4.30386 45.7885 4.46778C46.5099 4.65902 47.0578 4.89124 47.4322 5.16444C47.8157 5.43763 48.076 5.75636 48.2129 6.12063C48.3499 6.47579 48.4184 6.88103 48.4184 7.33636C48.4184 8.13774 48.1079 8.78431 47.487 9.27606C46.866 9.75871 45.9255 10 44.6653 10Z" fill="#8B939A"/>
</svg>
