<svg width="78" height="10" viewBox="0 0 78 10" fill="none" xmlns="http://www.w3.org/2000/svg">
<path d="M0.000244141 9.86344V1.06647H2.57538V9.86344H0.000244141Z" fill="#8B939A"/>
<path d="M3.81255 9.86344V1.06647H6.00416L9.33266 5.72449V1.06647H11.9078V9.86344H9.70249L6.38769 5.21908V9.86344H3.81255Z" fill="#8B939A"/>
<path d="M13.136 9.86344V1.06647H19.7656V2.97885H15.7111V4.4951H19.2451V6.43481H15.7111V9.86344H13.136Z" fill="#8B939A"/>
<path d="M20.4529 9.86344V1.06647H23.0281V7.89641H27.0003V9.86344H20.4529Z" fill="#8B939A"/>
<path d="M31.7989 10C30.977 10 30.2511 9.86799 29.621 9.6039C29 9.3307 28.5115 8.93457 28.1553 8.41549C27.7992 7.88731 27.6211 7.24074 27.6211 6.47579V1.06647H30.1963V6.20259C30.1963 7.27717 30.7305 7.81445 31.7989 7.81445C32.3103 7.81445 32.7029 7.68241 32.9769 7.41832C33.2508 7.15423 33.3878 6.74898 33.3878 6.20259V1.06647H35.9629V6.47579C35.9629 7.24074 35.7849 7.88731 35.4287 8.41549C35.0817 8.93457 34.5932 9.3307 33.9631 9.6039C33.3421 9.86799 32.6207 10 31.7989 10Z" fill="#8B939A"/>
<path d="M37.1334 9.86344V1.06647H43.8178V3.03349H39.7086V4.46778H43.311V6.46213H39.7086V7.89641H43.8178V9.86344H37.1334Z" fill="#8B939A"/>
<path d="M44.6376 9.86344V1.06647H46.8293L50.1578 5.72449V1.06647H52.7329V9.86344H50.5276L47.2128 5.21908V9.86344H44.6376Z" fill="#8B939A"/>
<path d="M58.6045 10C57.0065 10 55.7874 9.60845 54.9473 8.82529C54.1072 8.04212 53.6871 6.93567 53.6871 5.50593C53.6871 4.03067 54.0981 2.90145 54.9199 2.11828C55.7418 1.32601 56.9654 0.929871 58.5908 0.929871C59.1387 0.929871 59.6273 0.97085 60.0565 1.05281C60.4857 1.13477 60.8966 1.2486 61.2893 1.39431V3.63453C60.5039 3.28848 59.6638 3.11545 58.7689 3.11545C57.9379 3.11545 57.3215 3.30669 56.9197 3.68917C56.518 4.06254 56.3171 4.66813 56.3171 5.50593C56.3171 6.32553 56.5271 6.91745 56.9471 7.28172C57.3763 7.63688 57.9927 7.81445 58.7963 7.81445C59.2346 7.81445 59.6592 7.77347 60.0702 7.69152C60.4902 7.60956 60.9057 7.48206 61.3166 7.30904V9.56292C60.924 9.69952 60.5085 9.80424 60.0702 9.8771C59.641 9.95906 59.1524 10 58.6045 10Z" fill="#8B939A"/>
<path d="M62.2813 9.86344V1.06647H68.9657V3.03349H64.8564V4.46778H68.4588V6.46213H64.8564V7.89641H68.9657V9.86344H62.2813Z" fill="#8B939A"/>
<path d="M69.7855 9.86344V1.06647H74.3742C75.0956 1.06647 75.6845 1.19852 76.1411 1.46261C76.6068 1.7267 76.9539 2.09551 77.1821 2.56906C77.4104 3.03349 77.5246 3.57534 77.5246 4.19458C77.5246 4.78651 77.3739 5.31014 77.0726 5.76547C76.7803 6.21169 76.3877 6.55319 75.8946 6.78996C75.995 6.87192 76.0818 6.97209 76.1548 7.09048C76.2279 7.19976 76.3101 7.35457 76.4014 7.55492L77.415 9.86344H74.7303L73.7989 7.74616C73.7258 7.58224 73.6345 7.4684 73.5249 7.40466C73.4245 7.33181 73.2783 7.29538 73.0866 7.29538H72.3606V9.86344H69.7855ZM72.3606 5.32835H73.7167C74.0911 5.32835 74.3787 5.23274 74.5796 5.0415C74.7896 4.84115 74.8947 4.55885 74.8947 4.19458C74.8947 3.42052 74.5294 3.03349 73.7989 3.03349H72.3606V5.32835Z" fill="#8B939A"/>
</svg>
