<svg width="75" height="10" viewBox="0 0 75 10" fill="none" xmlns="http://www.w3.org/2000/svg">
<path d="M0.000244141 9.86344V1.06647H2.5069L4.6985 5.53325L6.87641 1.06647H9.36937V9.86344H6.79423V5.46495L5.38338 8.36085H3.99993L2.57538 5.46495V9.86344H0.000244141Z" fill="#F09F44"/>
<path d="M10.3339 9.86344L13.7172 1.06647H16.443L19.8263 9.86344H17.1415L16.4019 7.99203H13.7446L13.0186 9.86344H10.3339ZM14.087 6.14795H16.0594L15.0732 3.56623L14.087 6.14795Z" fill="#F09F44"/>
<path d="M24.5858 10C23.0152 10 21.8189 9.61756 20.9971 8.85261C20.1752 8.07855 19.7643 6.97665 19.7643 5.54691C19.7643 4.07165 20.1889 2.93332 21.0382 2.13194C21.8874 1.33056 23.1293 0.929871 24.7639 0.929871C25.3118 0.929871 25.8049 0.961744 26.2432 1.02549C26.6907 1.08924 27.1108 1.18486 27.5034 1.31235V3.51159C27.1016 3.35678 26.6861 3.25205 26.2569 3.19741C25.8278 3.14277 25.3894 3.11545 24.942 3.11545C24.0927 3.11545 23.4535 3.30669 23.0243 3.68917C22.6043 4.07165 22.3942 4.69089 22.3942 5.54691C22.3942 6.34829 22.5769 6.92656 22.9421 7.28172C23.3165 7.63688 23.8644 7.81445 24.5858 7.81445C24.8233 7.81445 25.047 7.80079 25.257 7.77347C25.4671 7.73705 25.6634 7.69152 25.846 7.63688V6.35285H24.0927V4.7683H27.9965V9.1941C27.6587 9.40355 27.2066 9.59024 26.6405 9.75416C26.0834 9.91808 25.3986 10 24.5858 10Z" fill="#F09F44"/>
<path d="M28.6864 9.86344L32.0697 1.06647H34.7955L38.1788 9.86344H35.4941L34.7545 7.99203H32.0971L31.3712 9.86344H28.6864ZM32.4396 6.14795H34.412L33.4258 3.56623L32.4396 6.14795Z" fill="#F09F44"/>
<path d="M38.6653 9.86344V8.57941L42.5006 3.03349H38.8708V1.06647H45.8839V2.40514L42.0897 7.89641H45.9661V9.86344H38.6653Z" fill="#F09F44"/>
<path d="M46.8582 9.86344V1.06647H49.4333V9.86344H46.8582Z" fill="#F09F44"/>
<path d="M50.6705 9.86344V1.06647H52.8621L56.1906 5.72449V1.06647H58.7657V9.86344H56.5604L53.2456 5.21908V9.86344H50.6705Z" fill="#F09F44"/>
<path d="M59.9939 9.86344V1.06647H66.6783V3.03349H62.569V4.46778H66.1715V6.46213H62.569V7.89641H66.6783V9.86344H59.9939Z" fill="#F09F44"/>
<path d="M70.3883 10C69.7947 10 69.2331 9.9545 68.7035 9.86344C68.1739 9.76327 67.7218 9.62667 67.3474 9.45364V7.33636C67.7584 7.5276 68.215 7.68241 68.7172 7.8008C69.2194 7.91918 69.6897 7.97837 70.128 7.97837C70.5846 7.97837 70.9271 7.94195 71.1554 7.86909C71.3928 7.78714 71.5115 7.60956 71.5115 7.33636C71.5115 7.14512 71.443 6.99486 71.306 6.88558C71.1782 6.7763 70.9727 6.67613 70.6896 6.58506C70.4157 6.494 70.055 6.38017 69.6075 6.24357C69.014 6.05233 68.5437 5.84288 68.1967 5.61521C67.8497 5.38755 67.5986 5.1098 67.4433 4.78196C67.2972 4.45412 67.2242 4.05343 67.2242 3.57989C67.2242 2.71476 67.5301 2.05909 68.1419 1.61287C68.7629 1.15754 69.6806 0.929871 70.8951 0.929871C71.3791 0.929871 71.8768 0.97085 72.3881 1.05281C72.9086 1.13477 73.3287 1.22584 73.6483 1.32601V3.45695C73.2191 3.28393 72.8082 3.16099 72.4155 3.08813C72.0229 3.01528 71.653 2.97885 71.306 2.97885C70.9042 2.97885 70.5618 3.01073 70.2787 3.07447C69.9956 3.13822 69.8541 3.30214 69.8541 3.56623C69.8541 3.79389 69.9728 3.96237 70.2102 4.07165C70.4568 4.17182 70.8905 4.30386 71.5115 4.46778C72.2329 4.65902 72.7808 4.89124 73.1552 5.16444C73.5387 5.43763 73.799 5.75636 73.936 6.12063C74.0729 6.47579 74.1414 6.88103 74.1414 7.33636C74.1414 8.13774 73.8309 8.78431 73.21 9.27606C72.589 9.75871 71.6485 10 70.3883 10Z" fill="#F09F44"/>
</svg>
