<svg width="94" height="21" viewBox="0 0 94 21" fill="none" xmlns="http://www.w3.org/2000/svg">
<path d="M0.351868 20.5788V0.177734H6.13972L11.2001 10.5367L16.2289 0.177734H21.9851V20.5788H16.0392V10.3783L12.7815 17.0942H9.58713L6.29786 10.3783V20.5788H0.351868Z" fill="#E3E3E3"/>
<path d="M24.8447 20.5788V0.177734H40.279V4.73947H30.7907V8.06573H39.1088V12.6908H30.7907V16.0171H40.279V20.5788H24.8447Z" fill="#E3E3E3"/>
<path d="M42.172 20.5788V0.177734H51.2807C53.3681 0.177734 55.1498 0.526201 56.6258 1.22313C58.1017 1.89894 59.2298 2.99714 60.0099 4.51772C60.7901 6.01717 61.1801 8.01293 61.1801 10.505C61.1801 14.0108 60.3262 16.5662 58.6183 18.1712C56.9104 19.7763 54.4645 20.5788 51.2807 20.5788H42.172ZM48.1179 16.0171H50.5216C51.5126 16.0171 52.3455 15.8798 53.0202 15.6053C53.6949 15.3096 54.2115 14.7711 54.57 13.9896C54.9284 13.1871 55.1076 12.0256 55.1076 10.505C55.1076 8.98441 54.939 7.8123 54.6016 6.98865C54.2853 6.14389 53.7898 5.56311 53.1151 5.24633C52.4404 4.90842 51.5759 4.73947 50.5216 4.73947H48.1179V16.0171Z" fill="#E3E3E3"/>
<path d="M63.3909 20.5788V0.177734H69.3369V20.5788H63.3909Z" fill="#E3E3E3"/>
<path d="M71.5609 20.5788L79.3729 0.177734H85.6668L93.4788 20.5788H87.2798L85.5719 16.2388H79.4362L77.7599 20.5788H71.5609ZM80.2269 11.9622H84.7812L82.5041 5.97494L80.2269 11.9622Z" fill="#E3E3E3"/>
</svg>
