<svg width="32" height="34" viewBox="0 0 32 34" fill="none" xmlns="http://www.w3.org/2000/svg">
<path d="M16.6517 0.756836C16.7894 0.756836 16.7893 0.756836 16.927 0.756836C18.7165 0.756836 20.3683 0.756836 22.1578 0.756836C22.2954 0.756836 22.4331 0.756834 22.5707 1.03214C23.3966 2.54631 24.3602 4.06048 25.7367 5.16169C27.1132 6.40056 28.765 7.22647 30.6922 7.50177C30.8298 7.50177 30.9675 7.50177 31.2428 7.63943C30.8298 9.4289 30.5545 11.2184 30.1416 13.1455C27.2509 12.7325 24.6355 11.769 22.5707 9.56655C22.5707 9.7042 22.5707 9.84185 22.5707 9.9795C22.5707 14.1091 22.5707 18.2386 22.5707 22.3682C22.5707 24.02 22.2954 25.6718 21.4695 27.3236C19.8177 30.6273 17.2023 32.5544 13.6233 33.2427C7.84197 34.2062 2.47355 30.6273 1.23468 24.9836C-0.141834 19.0645 3.71242 13.2831 9.63145 12.0443C10.595 11.9066 11.5586 11.769 12.5221 11.769C12.9351 11.769 13.348 11.769 13.761 11.769C13.761 13.6961 13.761 15.4856 13.761 17.4127C13.6234 17.4127 13.6233 17.4127 13.4857 17.4127C12.7974 17.4127 11.9715 17.4127 11.2833 17.4127C9.08086 17.5504 7.15371 19.3398 6.74076 21.5423C6.3278 24.4329 7.97961 26.9107 10.7326 27.4613C13.4857 28.0119 16.3764 26.0848 16.7894 23.1941C16.7894 22.9188 16.7894 22.6435 16.7894 22.3682C16.7894 15.2103 16.7894 8.19003 16.7894 1.03214C16.6517 1.03214 16.6517 0.894488 16.6517 0.756836Z" fill="black"/>
</svg>
