<svg width="34" height="17" viewBox="0 0 34 17" fill="none" xmlns="http://www.w3.org/2000/svg">
<path d="M7.74891 17C6.22454 17 4.878 16.7504 3.70932 16.251C2.55756 15.7345 1.65141 14.9855 0.990845 14.0041C0.330282 13.0054 0 11.7829 0 10.3366V0.108948H4.77638V9.82003C4.77638 11.8518 5.76722 12.8676 7.74891 12.8676C8.69741 12.8676 9.42573 12.618 9.93385 12.1187C10.442 11.6193 10.696 10.8531 10.696 9.82003V0.108948H15.4724V10.3366C15.4724 11.7829 15.1421 13.0054 14.4816 14.0041C13.8379 14.9855 12.9318 15.7345 11.7631 16.251C10.6114 16.7504 9.27329 17 7.74891 17Z" fill="#14276F"/>
<path d="M17.6435 16.7418V0.108948H22.4198V5.97175L27.3741 0.108948H32.811L27.0438 6.92736L33.2175 16.7418H28.1363L24.0967 10.0266L22.4198 11.9379V16.7418H17.6435Z" fill="#14276F"/>
</svg>
