<svg width="98" height="16" viewBox="0 0 98 16" fill="none" xmlns="http://www.w3.org/2000/svg">
<path d="M7.1334 15.9998C5.73011 15.9998 4.49054 15.7733 3.41468 15.3204C2.35441 14.8519 1.52023 14.1726 0.91214 13.2824C0.304047 12.3766 0 11.2677 0 9.95589V0.679199H4.39698V9.48737C4.39698 11.3302 5.30912 12.2516 7.1334 12.2516C8.00656 12.2516 8.67703 12.0252 9.14479 11.5723C9.61255 11.1194 9.84644 10.4244 9.84644 9.48737V0.679199H14.2434V9.95589C14.2434 11.2677 13.9394 12.3766 13.3313 13.2824C12.7388 14.1726 11.9046 14.8519 10.8287 15.3204C9.76848 15.7733 8.5367 15.9998 7.1334 15.9998Z" fill="white"/>
<path d="M16.242 15.7655V0.679199H20.639V5.9969L25.1997 0.679199H30.2048L24.8957 6.86366L30.579 15.7655H25.9013L22.1826 9.67478L20.639 11.4083V15.7655H16.242Z" fill="white"/>
<path d="M32.2072 15.7655V0.679199H40.0423C41.274 0.679199 42.2797 0.90565 43.0593 1.35855C43.8545 1.81146 44.447 2.44396 44.8368 3.25606C45.2266 4.05254 45.4215 4.98177 45.4215 6.04375C45.4215 7.05888 45.1643 7.95687 44.6497 8.73774C44.1508 9.50299 43.4803 10.0886 42.6383 10.4947C42.8099 10.6352 42.958 10.807 43.0827 11.0101C43.2075 11.1975 43.3478 11.463 43.5037 11.8065L45.2344 15.7655H40.6503L39.06 12.1345C38.9352 11.8534 38.7793 11.6582 38.5922 11.5489C38.4207 11.4239 38.1712 11.3614 37.8438 11.3614H36.6042V15.7655H32.2072ZM36.6042 7.98811H38.9196C39.5589 7.98811 40.0501 7.82413 40.3931 7.49616C40.7517 7.15258 40.931 6.66844 40.931 6.04375C40.931 4.71628 40.3073 4.05254 39.06 4.05254H36.6042V7.98811Z" fill="white"/>
<path d="M45.5348 15.7655L51.3117 0.679199H55.966L61.7429 15.7655H57.1588L55.8958 12.5562H51.3585L50.1189 15.7655H45.5348ZM51.9432 9.39367H55.3111L53.6271 4.96616L51.9432 9.39367Z" fill="white"/>
<path d="M63.3839 15.7655V0.679199H67.7809V15.7655H63.3839Z" fill="white"/>
<path d="M69.8933 15.7655V0.679199H73.6354L79.3187 8.66746V0.679199H83.7157V15.7655H79.9502L74.2903 7.8007V15.7655H69.8933Z" fill="white"/>
<path d="M85.8128 15.7655V0.679199H97.2262V4.05254H90.2098V6.51227H96.3609V9.93246H90.2098V12.3922H97.2262V15.7655H85.8128Z" fill="white"/>
</svg>
