<svg width="40" height="40" viewBox="0 0 40 40" fill="none" xmlns="http://www.w3.org/2000/svg">
<circle cx="20" cy="20" r="20" fill="#14276F"/>
<path fill-rule="evenodd" clip-rule="evenodd" d="M13.4465 12.3792C10.6925 12.3792 8.46008 14.526 8.46008 17.1743V22.8257C8.46008 25.474 10.6925 27.6208 13.4465 27.6208H26.5535C29.3074 27.6208 31.5399 25.474 31.5399 22.8257V17.1743C31.5399 14.526 29.3074 12.3792 26.5535 12.3792H13.4465ZM24.2431 20.3249C24.6801 20.1277 24.6801 19.5298 24.2431 19.3326L18.1674 16.5912C17.7895 16.4206 17.3554 16.6858 17.3554 17.0873V22.5702C17.3554 22.9717 17.7895 23.2369 18.1674 23.0663L24.2431 20.3249Z" fill="#FAF7F4"/>
</svg>
