<svg width="95" height="20" viewBox="0 0 95 20" fill="none" xmlns="http://www.w3.org/2000/svg">
<path d="M0 18.9286V0.0301514H10.2828C12.1806 0.0301514 13.6233 0.480114 14.6109 1.38004C15.5985 2.27996 16.0923 3.57116 16.0923 5.25362C16.0923 6.2318 15.9083 7.05347 15.5404 7.71863C15.1918 8.38379 14.7271 8.91201 14.1461 9.30328C14.9401 9.6163 15.5694 10.076 16.0342 10.6825C16.5183 11.2694 16.7604 12.1498 16.7604 13.3236C16.7604 15.1039 16.2182 16.4831 15.1337 17.4613C14.0493 18.4395 12.5098 18.9286 10.5152 18.9286H0ZM5.25759 7.5719H8.80139C10.1376 7.5719 10.8057 6.96543 10.8057 5.75249C10.8057 5.14602 10.6411 4.68628 10.3119 4.37326C10.002 4.06025 9.45011 3.90374 8.65615 3.90374H5.25759V7.5719ZM5.25759 15.0843H9.03376C9.76963 15.0843 10.3119 14.9278 10.6604 14.6148C11.009 14.3018 11.1833 13.7833 11.1833 13.0595C11.1833 12.453 11.009 11.9933 10.6604 11.6803C10.3119 11.3672 9.7309 11.2107 8.91757 11.2107H5.25759V15.0843Z" fill="#28282C"/>
<path d="M27.5213 19.222C25.7785 19.222 24.239 18.9383 22.9028 18.371C21.586 17.7841 20.55 16.9331 19.7947 15.8179C19.0395 14.6833 18.6619 13.2942 18.6619 11.6509V0.0301514H24.1228V11.064C24.1228 13.3725 25.2556 14.5267 27.5213 14.5267C28.6058 14.5267 29.4385 14.2431 30.0194 13.6757C30.6004 13.1084 30.8909 12.2378 30.8909 11.064V0.0301514H36.3518V11.6509C36.3518 13.2942 35.9742 14.6833 35.2189 15.8179C34.4831 16.9331 33.447 17.7841 32.1109 18.371C30.794 18.9383 29.2642 19.222 27.5213 19.222Z" fill="#28282C"/>
<path d="M38.834 18.9286V0.0301514H48.5649C50.0947 0.0301514 51.3438 0.313824 52.312 0.881168C53.2996 1.44851 54.0355 2.24083 54.5196 3.25814C55.0037 4.25588 55.2458 5.41991 55.2458 6.75023C55.2458 8.02186 54.9263 9.14677 54.2872 10.1249C53.6676 11.0836 52.8349 11.8172 51.7892 12.3258C52.0022 12.5019 52.1861 12.7171 52.341 12.9714C52.496 13.2062 52.6703 13.5388 52.8639 13.9692L55.0134 18.9286H49.3201L47.3449 14.38C47.19 14.0279 46.9963 13.7833 46.7639 13.6464C46.5509 13.4899 46.2411 13.4116 45.8344 13.4116H44.2949V18.9286H38.834ZM44.2949 9.1859H47.1706C47.9646 9.1859 48.5746 8.98048 49.0006 8.56965C49.446 8.13925 49.6687 7.53278 49.6687 6.75023C49.6687 5.08733 48.8941 4.25588 47.3449 4.25588H44.2949V9.1859Z" fill="#28282C"/>
<path d="M57.2723 18.9286V0.0301514H65.638C67.5551 0.0301514 69.1915 0.352951 70.547 0.998549C71.9025 1.62458 72.9386 2.64189 73.6551 4.05046C74.3716 5.43948 74.7298 7.28823 74.7298 9.59673C74.7298 12.8443 73.9456 15.2115 72.377 16.6983C70.8084 18.1851 68.5621 18.9286 65.638 18.9286H57.2723ZM62.7332 14.7028H64.9408C65.851 14.7028 66.6159 14.5757 67.2356 14.3213C67.8553 14.0474 68.3297 13.5486 68.6589 12.8247C68.9881 12.0813 69.1527 11.0053 69.1527 9.59673C69.1527 8.18816 68.9978 7.10238 68.688 6.3394C68.3975 5.55686 67.9424 5.01886 67.3227 4.72541C66.7031 4.41239 65.9091 4.25588 64.9408 4.25588H62.7332V14.7028Z" fill="#28282C"/>
<path d="M74.5907 18.9286L81.7655 0.0301514H87.5459L94.7206 18.9286H89.0273L87.4588 14.9082H81.8235L80.284 18.9286H74.5907ZM82.5497 10.9466H86.7326L84.6412 5.40035L82.5497 10.9466Z" fill="#28282C"/>
</svg>
