<svg width="370" height="86" viewBox="0 0 370 86" fill="none" xmlns="http://www.w3.org/2000/svg">
<path d="M16.0891 85.7022C12.924 85.7022 10.1282 85.1923 7.70167 84.1724C5.31028 83.1174 3.42882 81.5876 2.05729 79.5831C0.685765 77.5434 0 75.0465 0 72.0924V51.203H9.91722V71.0374C9.91722 75.1872 11.9745 77.262 16.0891 77.262C18.0585 77.262 19.5707 76.7521 20.6257 75.7323C21.6807 74.7124 22.2082 73.1475 22.2082 71.0374V51.203H32.1255V72.0924C32.1255 75.0465 31.4397 77.5434 30.0682 79.5831C28.7318 81.5876 26.8503 83.1174 24.4238 84.1724C22.0324 85.1923 19.2542 85.7022 16.0891 85.7022Z" fill="#14276F"/>
<path d="M36.6332 85.1747V51.203H46.5504V63.1775L56.8369 51.203H68.1256L56.1511 65.1293L68.9697 85.1747H58.4194L50.032 71.4594L46.5504 75.363V85.1747H36.6332Z" fill="#14276F"/>
<path d="M72.6421 85.1747V51.203H90.3137C93.0919 51.203 95.3602 51.7129 97.1186 52.7328C98.9121 53.7526 100.248 55.1769 101.128 57.0056C102.007 58.7991 102.446 60.8916 102.446 63.283C102.446 65.5689 101.866 67.591 100.706 69.3494C99.5803 71.0726 98.0681 72.3914 96.1691 73.3057C96.5559 73.6222 96.89 74.0091 97.1713 74.4662C97.4527 74.8882 97.7692 75.4861 98.1209 76.2598L102.024 85.1747H91.6852L88.0981 76.9983C87.8168 76.3653 87.4651 75.9257 87.0431 75.6795C86.6563 75.3982 86.0936 75.2575 85.3551 75.2575H82.5593V85.1747H72.6421ZM82.5593 67.6613H87.7816C89.2235 67.6613 90.3313 67.2921 91.1049 66.5536C91.9138 65.7799 92.3182 64.6897 92.3182 63.283C92.3182 60.2938 90.9115 58.7991 88.0981 58.7991H82.5593V67.6613Z" fill="#14276F"/>
<path d="M102.702 85.1747L115.731 51.203H126.229L139.259 85.1747H128.919L126.071 77.9478H115.837L113.041 85.1747H102.702ZM117.156 70.8264H124.752L120.954 60.8564L117.156 70.8264Z" fill="#14276F"/>
<path d="M142.96 85.1747V51.203H152.877V85.1747H142.96Z" fill="#14276F"/>
<path d="M157.641 85.1747V51.203H166.082L178.9 69.1911V51.203H188.817V85.1747H180.324L167.559 67.2393V85.1747H157.641Z" fill="#14276F"/>
<path d="M193.547 85.1747V51.203H219.29V58.7991H203.464V64.338H217.338V72.0397H203.464V77.5786H219.29V85.1747H193.547Z" fill="#14276F"/>
<path d="M0.572754 44.8536V6.46075H21.6769C25.5718 6.46075 28.5327 7.37487 30.5597 9.2031C32.5866 11.0313 33.6001 13.6544 33.6001 17.0724C33.6001 19.0596 33.2225 20.7289 32.4674 22.0802C31.752 23.4315 30.7982 24.5046 29.6058 25.2995C31.2353 25.9354 32.527 26.8694 33.4809 28.1014C34.4745 29.2938 34.9713 31.0822 34.9713 33.4669C34.9713 37.0836 33.8585 39.8856 31.6328 41.8728C29.4071 43.86 26.2475 44.8536 22.1538 44.8536H0.572754ZM11.3633 21.7821H18.6365C21.3788 21.7821 22.75 20.55 22.75 18.0859C22.75 16.8538 22.4121 15.9199 21.7365 15.284C21.1006 14.648 19.9679 14.3301 18.3384 14.3301H11.3633V21.7821ZM11.3633 37.0439H19.1134C20.6237 37.0439 21.7365 36.7259 22.4519 36.09C23.1673 35.4541 23.525 34.4009 23.525 32.9303C23.525 31.6983 23.1673 30.7643 22.4519 30.1284C21.7365 29.4925 20.5442 29.1745 18.8749 29.1745H11.3633V37.0439Z" fill="#28282C"/>
<path d="M57.0567 45.4497C53.4798 45.4497 50.3201 44.8734 47.5778 43.7209C44.8752 42.5285 42.7489 40.7997 41.1988 38.5343C39.6488 36.2291 38.8738 33.4073 38.8738 30.0688V6.46075H50.0817V28.8764C50.0817 33.5662 52.4067 35.9111 57.0567 35.9111C59.2824 35.9111 60.9914 35.3349 62.1837 34.1823C63.3761 33.0297 63.9722 31.2611 63.9722 28.8764V6.46075H75.1801V30.0688C75.1801 33.4073 74.4051 36.2291 72.855 38.5343C71.3448 40.7997 69.2185 42.5285 66.4761 43.7209C63.7735 44.8734 60.6337 45.4497 57.0567 45.4497Z" fill="#28282C"/>
<path d="M80.2744 44.8536V6.46075H100.246C103.386 6.46075 105.949 7.03705 107.936 8.18963C109.963 9.34221 111.474 10.9518 112.467 13.0185C113.461 15.0455 113.958 17.4103 113.958 20.1129C113.958 22.6962 113.302 24.9815 111.99 26.9687C110.718 28.9162 109.009 30.4066 106.863 31.4399C107.3 31.7976 107.678 32.2348 107.996 32.7515C108.314 33.2284 108.672 33.9041 109.069 34.7784L113.481 44.8536H101.796L97.742 35.6131C97.424 34.8977 97.0266 34.4009 96.5497 34.1227C96.1125 33.8047 95.4766 33.6457 94.6419 33.6457H91.4823V44.8536H80.2744ZM91.4823 25.061H97.3843C99.0138 25.061 100.266 24.6437 101.14 23.8091C102.054 22.9347 102.511 21.7026 102.511 20.1129C102.511 16.7346 100.922 15.0455 97.742 15.0455H91.4823V25.061Z" fill="#28282C"/>
<path d="M118.117 44.8536V6.46075H135.286C139.221 6.46075 142.579 7.11653 145.361 8.42809C148.143 9.6999 150.27 11.7666 151.74 14.6282C153.211 17.45 153.946 21.2058 153.946 25.8956C153.946 32.4932 152.336 37.3022 149.117 40.3227C145.898 43.3433 141.288 44.8536 135.286 44.8536H118.117ZM129.325 36.2688H133.855C135.723 36.2688 137.293 36.0105 138.565 35.4938C139.837 34.9374 140.811 33.9239 141.486 32.4534C142.162 30.9431 142.5 28.7572 142.5 25.8956C142.5 23.0341 142.182 20.8283 141.546 19.2782C140.95 17.6885 140.016 16.5955 138.744 15.9993C137.472 15.3634 135.843 15.0455 133.855 15.0455H129.325V36.2688Z" fill="#28282C"/>
<path d="M153.661 44.8536L168.386 6.46075H180.249L194.975 44.8536H183.29L180.071 36.6862H168.505L165.345 44.8536H153.661ZM169.995 28.638H178.58L174.288 17.3705L169.995 28.638Z" fill="#28282C"/>
<mask id="mask0_24_596" style="mask-type:alpha" maskUnits="userSpaceOnUse" x="191" y="0" width="179" height="50">
<path d="M203.991 49.3665L191.592 18.3689V0H370V49.3665H203.991Z" fill="black"/>
</mask>
<g mask="url(#mask0_24_596)">
<path d="M194.769 44.8535V6.46063H205.679L215.218 25.9551L224.697 6.46063H235.547V44.8535H224.339V25.657L218.198 38.2957H212.177L205.977 25.657V44.8535H194.769Z" fill="#505356"/>
<path d="M240.937 44.8535V6.46063H270.03V15.0454H252.145V21.3051H267.824V30.009H252.145V36.2687H270.03V44.8535H240.937Z" fill="#505356"/>
<path d="M273.598 44.8535V6.46063H290.767C294.702 6.46063 298.06 7.11641 300.842 8.42797C303.624 9.69978 305.751 11.7665 307.221 14.628C308.692 17.4499 309.427 21.2057 309.427 25.8955C309.427 32.493 307.817 37.3021 304.598 40.3226C301.379 43.3432 296.768 44.8535 290.767 44.8535H273.598ZM284.806 36.2687H289.336C291.204 36.2687 292.774 36.0104 294.046 35.4937C295.318 34.9373 296.292 33.9238 296.967 32.4533C297.643 30.943 297.981 28.7571 297.981 25.8955C297.981 23.0339 297.663 20.8281 297.027 19.2781C296.431 17.6883 295.497 16.5954 294.225 15.9992C292.953 15.3633 291.324 15.0454 289.336 15.0454H284.806V36.2687Z" fill="#505356"/>
<path d="M313.594 44.8535V6.46063H324.802V44.8535H313.594Z" fill="#505356"/>
<path d="M328.994 44.8535L343.719 6.46063H355.583L370.308 44.8535H358.623L355.404 36.686H343.839L340.679 44.8535H328.994ZM345.329 28.6379H353.914L349.621 17.3704L345.329 28.6379Z" fill="#505356"/>
</g>
</svg>
