<?xml version="1.0" standalone="no"?>
<!DOCTYPE svg PUBLIC "-//W3C//DTD SVG 20010904//EN"
 "http://www.w3.org/TR/2001/REC-SVG-20010904/DTD/svg10.dtd">
<svg version="1.0" xmlns="http://www.w3.org/2000/svg"
 width="48.000000pt" height="48.000000pt" viewBox="0 0 48.000000 48.000000"
 preserveAspectRatio="xMidYMid meet">

<g transform="translate(0.000000,48.000000) scale(0.100000,-0.100000)"
fill="#000000" stroke="none">
<path d="M30 360 l0 -100 78 0 c47 0 83 5 90 12 18 18 15 75 -4 86 -11 6 -13
11 -5 16 19 12 13 64 -8 76 -11 5 -49 10 -85 10 l-66 0 0 -100z m111 35 c0 -5
-12 -11 -26 -13 -18 -2 -25 1 -25 13 0 12 7 15 25 13 14 -2 26 -7 26 -13z m12
-61 c13 -14 -7 -34 -34 -34 -22 0 -29 5 -29 20 0 15 7 20 28 20 16 0 31 -3 35
-6z"/>
<path d="M230 361 l0 -101 30 0 c29 0 30 1 31 53 1 56 2 55 19 -10 9 -35 15
-43 35 -43 19 0 24 6 30 38 11 65 25 73 25 15 0 -50 2 -53 25 -53 l25 0 0 100
0 100 -39 0 c-39 0 -39 -1 -51 -51 -14 -57 -20 -56 -35 4 -10 40 -13 42 -53
45 l-42 3 0 -100z"/>
<path d="M237 142 c-20 -54 -37 -104 -37 -110 0 -7 14 -12 30 -12 20 0 30 5
30 15 0 21 78 21 86 0 7 -18 64 -21 63 -2 0 6 -17 55 -37 107 -35 89 -39 95
-68 98 -30 3 -31 2 -67 -96z m83 -29 c0 -7 -7 -13 -15 -13 -16 0 -19 9 -9 35
5 13 8 14 15 3 5 -7 9 -19 9 -25z"/>
<path d="M30 151 c0 -102 15 -124 86 -125 l48 -1 27 65 c15 36 28 82 28 103 1
35 -1 37 -29 37 l-30 0 0 -64 c0 -76 -6 -96 -29 -96 -31 0 -41 22 -41 92 l0
68 -30 0 -30 0 0 -79z"/>
</g>
</svg>
