<svg width="86" height="19" viewBox="0 0 86 19" fill="none" xmlns="http://www.w3.org/2000/svg">
<path d="M0.620178 18.9285V0.0300903H5.93586L10.5835 9.62601L15.202 0.0300903H20.4886V18.9285H15.0277V9.47929L12.0358 15.7005H9.10204L6.0811 9.47929V18.9285H0.620178Z" fill="#505356"/>
<path d="M23.1149 18.9285V0.0300903H37.2901V4.25582H28.5759V7.33708H36.2153V11.6215H28.5759V14.7028H37.2901V18.9285H23.1149Z" fill="#505356"/>
<path d="M39.0286 18.9285V0.0300903H47.3943C49.3114 0.0300903 50.9478 0.35289 52.3033 0.998488C53.6589 1.62452 54.6949 2.64182 55.4114 4.0504C56.1279 5.43941 56.4861 7.28817 56.4861 9.59667C56.4861 12.8442 55.7019 15.2114 54.1333 16.6982C52.5647 18.1851 50.3184 18.9285 47.3943 18.9285H39.0286ZM44.4895 14.7028H46.6972C47.6073 14.7028 48.3722 14.5756 48.9919 14.3213C49.6116 14.0474 50.086 13.5485 50.4152 12.8247C50.7444 12.0812 50.909 11.0052 50.909 9.59667C50.909 8.18809 50.7541 7.10232 50.4443 6.33934C50.1538 5.5568 49.6987 5.0188 49.079 4.72534C48.4594 4.41233 47.6654 4.25582 46.6972 4.25582H44.4895V14.7028Z" fill="#505356"/>
<path d="M58.5165 18.9285V0.0300903H63.9774V18.9285H58.5165Z" fill="#505356"/>
<path d="M66.0201 18.9285L73.1948 0.0300903H78.9752L86.1499 18.9285H80.4566L78.8881 14.9082H73.2529L71.7134 18.9285H66.0201ZM73.9791 10.9466H78.1619L76.0705 5.40029L73.9791 10.9466Z" fill="#505356"/>
</svg>
