<svg width="180" height="26" viewBox="0 0 180 26" fill="none" xmlns="http://www.w3.org/2000/svg">
<path d="M0 21.9286V3.03015H10.2828C12.1806 3.03015 13.6233 3.48011 14.6109 4.38004C15.5985 5.27996 16.0923 6.57116 16.0923 8.25362C16.0923 9.2318 15.9083 10.0535 15.5404 10.7186C15.1918 11.3838 14.7271 11.912 14.1461 12.3033C14.9401 12.6163 15.5694 13.076 16.0342 13.6825C16.5183 14.2694 16.7604 15.1498 16.7604 16.3236C16.7604 18.1039 16.2182 19.4831 15.1337 20.4613C14.0493 21.4395 12.5098 21.9286 10.5152 21.9286H0ZM5.25759 10.5719H8.80139C10.1376 10.5719 10.8057 9.96543 10.8057 8.75249C10.8057 8.14602 10.6411 7.68628 10.3119 7.37326C10.002 7.06025 9.45011 6.90374 8.65615 6.90374H5.25759V10.5719ZM5.25759 18.0843H9.03376C9.76963 18.0843 10.3119 17.9278 10.6604 17.6148C11.009 17.3018 11.1833 16.7833 11.1833 16.0595C11.1833 15.453 11.009 14.9933 10.6604 14.6803C10.3119 14.3672 9.7309 14.2107 8.91757 14.2107H5.25759V18.0843Z" fill="#28282C"/>
<path d="M27.5213 22.222C25.7785 22.222 24.239 21.9383 22.9028 21.371C21.586 20.7841 20.55 19.9331 19.7947 18.8179C19.0395 17.6833 18.6619 16.2942 18.6619 14.6509V3.03015H24.1228V14.064C24.1228 16.3725 25.2556 17.5267 27.5213 17.5267C28.6058 17.5267 29.4385 17.2431 30.0194 16.6757C30.6004 16.1084 30.8909 15.2378 30.8909 14.064V3.03015H36.3518V14.6509C36.3518 16.2942 35.9742 17.6833 35.2189 18.8179C34.4831 19.9331 33.447 20.7841 32.1109 21.371C30.794 21.9383 29.2642 22.222 27.5213 22.222Z" fill="#28282C"/>
<path d="M38.834 21.9286V3.03015H48.5649C50.0947 3.03015 51.3438 3.31382 52.312 3.88117C53.2996 4.44851 54.0355 5.24083 54.5196 6.25814C55.0037 7.25588 55.2458 8.41991 55.2458 9.75023C55.2458 11.0219 54.9263 12.1468 54.2872 13.1249C53.6676 14.0836 52.8349 14.8172 51.7892 15.3258C52.0022 15.5019 52.1861 15.7171 52.341 15.9714C52.496 16.2062 52.6703 16.5388 52.8639 16.9692L55.0134 21.9286H49.3201L47.3449 17.38C47.19 17.0279 46.9963 16.7833 46.7639 16.6464C46.5509 16.4899 46.2411 16.4116 45.8344 16.4116H44.2949V21.9286H38.834ZM44.2949 12.1859H47.1706C47.9646 12.1859 48.5746 11.9805 49.0006 11.5696C49.446 11.1392 49.6687 10.5328 49.6687 9.75023C49.6687 8.08733 48.8941 7.25588 47.3449 7.25588H44.2949V12.1859Z" fill="#28282C"/>
<path d="M57.2723 21.9286V3.03015H65.638C67.5551 3.03015 69.1915 3.35295 70.547 3.99855C71.9025 4.62458 72.9386 5.64189 73.6551 7.05046C74.3716 8.43948 74.7298 10.2882 74.7298 12.5967C74.7298 15.8443 73.9456 18.2115 72.377 19.6983C70.8084 21.1851 68.5621 21.9286 65.638 21.9286H57.2723ZM62.7332 17.7028H64.9408C65.851 17.7028 66.6159 17.5757 67.2356 17.3213C67.8553 17.0474 68.3297 16.5486 68.6589 15.8247C68.9881 15.0813 69.1527 14.0053 69.1527 12.5967C69.1527 11.1882 68.9978 10.1024 68.688 9.3394C68.3975 8.55686 67.9424 8.01886 67.3227 7.72541C66.7031 7.41239 65.9091 7.25588 64.9408 7.25588H62.7332V17.7028Z" fill="#28282C"/>
<path d="M74.5907 21.9286L81.7655 3.03015H87.5459L94.7206 21.9286H89.0273L87.4588 17.9082H81.8235L80.284 21.9286H74.5907ZM82.5497 13.9466H86.7326L84.6412 8.40035L82.5497 13.9466Z" fill="#28282C"/>
<mask id="mask0_610_997" style="mask-type:alpha" maskUnits="userSpaceOnUse" x="93" y="0" width="87" height="26">
<path d="M99.1134 25.15L93.0721 9.89185V0.849976H180V25.15H99.1134Z" fill="black"/>
</mask>
<g mask="url(#mask0_610_997)">
<path d="M94.6202 21.9284V3.03003H99.9359L104.583 12.626L109.202 3.03003H114.489V21.9284H109.028V12.4792L106.036 18.7004H103.102L100.081 12.4792V21.9284H94.6202Z" fill="#505356"/>
<path d="M117.115 21.9284V3.03003H131.29V7.25576H122.576V10.337H130.215V14.6214H122.576V17.7027H131.29V21.9284H117.115Z" fill="#505356"/>
<path d="M133.029 21.9284V3.03003H141.394C143.311 3.03003 144.948 3.35283 146.303 3.99843C147.659 4.62446 148.695 5.64176 149.411 7.05034C150.128 8.43935 150.486 10.2881 150.486 12.5966C150.486 15.8442 149.702 18.2113 148.133 19.6982C146.565 21.185 144.318 21.9284 141.394 21.9284H133.029ZM138.49 17.7027H140.697C141.607 17.7027 142.372 17.5755 142.992 17.3212C143.612 17.0473 144.086 16.5484 144.415 15.8246C144.744 15.0812 144.909 14.0052 144.909 12.5966C144.909 11.188 144.754 10.1023 144.444 9.33928C144.154 8.55674 143.699 8.01874 143.079 7.72528C142.459 7.41227 141.665 7.25576 140.697 7.25576H138.49V17.7027Z" fill="#505356"/>
<path d="M152.517 21.9284V3.03003H157.977V21.9284H152.517Z" fill="#505356"/>
<path d="M160.02 21.9284L167.195 3.03003H172.975L180.15 21.9284H174.457L172.888 17.9081H167.253L165.713 21.9284H160.02ZM167.979 13.9465H172.162L170.07 8.40023L167.979 13.9465Z" fill="#505356"/>
</g>
</svg>
