<svg width="53" height="100" viewBox="0 0 53 100" fill="none" xmlns="http://www.w3.org/2000/svg">
<path d="M26.4793 100C20.3569 100 15.3478 98.6362 11.4517 95.9085C7.63522 93.1007 4.81258 89.29 2.98384 84.4765C1.2346 79.6631 0.359985 74.1677 0.359985 67.9904V33.3333C0.359985 26.9956 1.07558 21.2996 2.50677 16.2455C4.01748 11.1913 6.64133 7.22022 10.3783 4.33213C14.1153 1.44404 19.4426 0 26.36 0C32.3233 0 37.0542 0.962695 40.5526 2.88808C44.1306 4.73325 46.7147 7.501 48.3049 11.1913C49.8952 14.8817 50.6903 19.4144 50.6903 24.7894C50.6903 25.0301 50.6903 25.3109 50.6903 25.6318C50.7698 25.8724 50.8095 26.1131 50.8095 26.3538H33.3967C33.3967 22.2623 32.9991 19.2138 32.204 17.2082C31.4089 15.2026 29.5007 14.1998 26.4793 14.1998C24.571 14.1998 23.0603 14.8014 21.9471 16.0048C20.9135 17.2082 20.1582 19.2539 19.6811 22.142C19.2835 24.9499 19.0848 28.8408 19.0848 33.8147V43.8026C20.1184 42.0377 21.7086 40.6739 23.8554 39.7112C26.0817 38.7485 28.626 38.227 31.4884 38.1468C36.5771 37.9864 40.6322 39.1496 43.6536 41.6366C46.7545 44.0433 48.9808 47.4127 50.3325 51.7449C51.6841 55.9968 52.36 60.8103 52.36 66.1853C52.36 72.7637 51.5649 78.6201 49.9747 83.7545C48.3845 88.8889 45.6811 92.9001 41.8646 95.7882C38.1276 98.5961 32.9991 100 26.4793 100ZM26.7178 86.1612C28.7056 86.1612 30.1765 85.4793 31.1306 84.1155C32.1643 82.7517 32.8401 80.8263 33.1581 78.3393C33.5557 75.8524 33.7545 72.844 33.7545 69.3141C33.7545 65.9446 33.6352 63.0164 33.3967 60.5295C33.2377 57.9623 32.6413 55.9567 31.6077 54.5126C30.5741 53.0686 28.8646 52.3466 26.4793 52.3466C25.3661 52.3466 24.2927 52.5872 23.2591 53.0686C22.3049 53.4697 21.4701 54.0313 20.7545 54.7533C20.0389 55.3951 19.4823 56.077 19.0848 56.799V72.3225C19.0848 74.7292 19.2835 77.0156 19.6811 79.1817C20.1582 81.2675 20.9533 82.9523 22.0664 84.2359C23.1796 85.5194 24.73 86.1612 26.7178 86.1612Z" fill="#14276F"/>
</svg>
